<?xml version="1.0" standalone="no"?>
<!DOCTYPE svg PUBLIC "-//W3C//DTD SVG 20010904//EN"
 "http://www.w3.org/TR/2001/REC-SVG-20010904/DTD/svg10.dtd">
<svg version="1.0" xmlns="http://www.w3.org/2000/svg"
 width="348.000000pt" height="348.000000pt" viewBox="0 0 348.000000 348.000000"
 preserveAspectRatio="xMidYMid meet">

<g transform="translate(0.000000,348.000000) scale(0.100000,-0.100000)"
fill="#000000" stroke="none">
<path d="M40 1735 l0 -1695 1695 0 1695 0 0 1695 0 1695 -1695 0 -1695 0 0
-1695z m1392 1663 c-9 -9 -12 -92 -12 -312 0 -265 2 -302 17 -318 15 -17 40
-18 386 -18 331 0 372 2 389 17 17 15 18 38 18 318 0 221 -3 304 -12 313 -9 9
122 12 590 12 l602 0 0 -1675 0 -1675 -1675 0 -1675 0 0 1675 0 1675 692 0
c538 0 689 -3 680 -12z m738 -313 l0 -275 -345 0 -345 0 0 275 0 275 345 0
345 0 0 -275z"/>
<path d="M2945 3230 c-46 -10 -79 -35 -103 -79 -56 -98 4 -215 119 -236 72
-13 168 53 184 126 25 111 -85 215 -200 189z m114 -39 c95 -67 90 -187 -10
-239 -97 -51 -209 14 -209 121 0 67 31 109 97 132 44 15 88 10 122 -14z"/>
<path d="M657 2672 c-15 -17 -17 -62 -17 -444 0 -399 1 -426 18 -441 17 -16
113 -17 1179 -17 1111 0 1161 1 1176 18 15 17 17 62 17 444 0 399 -1 426 -18
441 -17 16 -113 17 -1179 17 -1111 0 -1161 -1 -1176 -18z m2313 -442 l0 -400
-1135 0 -1135 0 0 400 0 400 1135 0 1135 0 0 -400z"/>
<path d="M1115 2502 c-29 -5 -45 -31 -45 -74 0 -47 23 -63 105 -72 70 -8 88
-22 109 -84 17 -47 21 -168 8 -189 -12 -19 -119 -43 -188 -43 -61 0 -63 1 -66
28 -3 31 -31 38 -36 9 -6 -32 7 -63 31 -74 29 -14 169 -1 237 22 39 13 52 23
65 52 33 70 -7 252 -65 295 -15 11 -53 22 -90 26 -62 7 -65 8 -68 35 -3 29 -3
29 49 25 42 -2 54 0 57 13 2 11 -9 18 -40 25 -24 5 -52 8 -63 6z"/>
<path d="M1525 2473 c-81 -84 -101 -294 -39 -418 35 -71 71 -99 122 -98 30 1
44 9 72 41 51 56 72 126 73 230 0 110 -24 189 -73 242 -32 34 -43 40 -78 40
-34 0 -47 -6 -77 -37z m124 -27 c105 -112 68 -446 -50 -446 -63 0 -116 130
-106 260 7 94 22 140 58 179 34 37 67 40 98 7z"/>
<path d="M2146 2491 c-8 -12 125 -533 140 -550 6 -7 16 -11 21 -8 5 3 51 119
103 257 67 180 90 254 83 261 -6 6 -15 9 -20 6 -5 -3 -45 -101 -88 -217 -43
-116 -82 -207 -85 -203 -4 4 -19 58 -34 118 -62 255 -89 345 -102 345 -7 0
-15 -4 -18 -9z"/>
<path d="M2624 2435 c-3 -6 -3 -114 -2 -240 l3 -229 27 -7 c14 -4 63 -10 108
-14 77 -7 82 -6 78 11 -2 15 -16 21 -68 27 -119 15 -110 7 -110 93 l0 76 48
-8 c77 -13 117 -11 117 6 0 10 -23 19 -80 30 l-80 16 -3 100 -3 101 68 9 c52
7 69 13 71 26 3 16 -6 17 -84 15 -47 -1 -88 -7 -90 -12z"/>
<path d="M1844 2138 c4 -150 11 -276 15 -281 4 -4 39 -1 77 8 38 8 79 18 92
20 22 5 30 29 13 39 -5 4 -38 -1 -73 -9 -35 -8 -66 -15 -70 -15 -5 0 -8 40 -8
88 0 49 -3 164 -7 255 -6 158 -7 167 -26 167 -20 0 -20 -5 -13 -272z"/>
<path d="M1445 1384 c-332 -38 -596 -116 -752 -222 -92 -62 -135 -125 -135
-197 0 -200 365 -368 922 -426 162 -17 546 -14 710 5 338 38 585 111 748 220
312 207 71 478 -522 586 -280 50 -696 65 -971 34z m702 -39 c375 -38 673 -129
807 -247 58 -50 76 -84 76 -141 0 -61 -40 -113 -132 -170 -228 -142 -605 -218
-1078 -218 -468 0 -833 71 -1071 209 -65 37 -135 109 -145 147 -47 187 308
359 866 419 172 19 495 19 677 1z"/>
<path d="M1510 3250 l0 -70 55 0 55 0 0 -112 c0 -62 4 -119 9 -126 10 -17 46
-12 45 6 -1 6 -2 91 -2 187 l-2 175 -25 0 c-22 0 -25 -4 -25 -35 0 -32 -2 -35
-30 -35 -28 0 -30 2 -30 40 0 36 -2 40 -25 40 -24 0 -25 -2 -25 -70z"/>
<path d="M1907 3299 c-9 -5 -27 -29 -40 -52 -19 -36 -22 -57 -22 -147 0 -94 3
-110 25 -150 15 -27 36 -48 53 -54 42 -15 78 3 107 54 22 40 25 56 25 150 0
90 -3 111 -23 147 -31 60 -78 79 -125 52z m85 -79 c25 -49 25 -191 0 -240 -13
-26 -23 -35 -42 -35 -18 0 -30 9 -43 35 -25 48 -21 213 6 254 25 37 57 32 79
-14z"/>
</g>
</svg>
