<svg version="1.0" xmlns="http://www.w3.org/2000/svg" width="464" height="464" viewBox="0 0 348 348"><path d="M4 174.5V344h339V5H4v169.5zM143.2 8.2c-.9.9-1.2 9.2-1.2 31.2 0 26.5.2 30.2 1.7 31.8 1.5 1.7 4 1.8 38.6 1.8 33.1 0 37.2-.2 38.9-1.7 1.7-1.5 1.8-3.8 1.8-31.8 0-22.1-.3-30.4-1.2-31.3-.9-.9 12.2-1.2 59-1.2H341v335H6V7h69.2c53.8 0 68.9.3 68 1.2zM217 39.5V67h-69V12h69v27.5z"/><path d="M294.5 25c-4.6 1-7.9 3.5-10.3 7.9-5.6 9.8.4 21.5 11.9 23.6 7.2 1.3 16.8-5.3 18.4-12.6 2.5-11.1-8.5-21.5-20-18.9zm11.4 3.9c9.5 6.7 9 18.7-1 23.9-9.7 5.1-20.9-1.4-20.9-12.1 0-6.7 3.1-10.9 9.7-13.2 4.4-1.5 8.8-1 12.2 1.4zM65.7 80.8C64.2 82.5 64 87 64 125.2c0 39.9.1 42.6 1.8 44.1 1.7 1.6 11.3 1.7 117.9 1.7 111.1 0 116.1-.1 117.6-1.8s1.7-6.2 1.7-44.4c0-39.9-.1-42.6-1.8-44.1-1.7-1.6-11.3-1.7-117.9-1.7-111.1 0-116.1.1-117.6 1.8zM297 125v40H70V85h227v40z"/><path d="M111.5 97.8c-2.9.5-4.5 3.1-4.5 7.4 0 4.7 2.3 6.3 10.5 7.2 7 .8 8.8 2.2 10.9 8.4 1.7 4.7 2.1 16.8.8 18.9-1.2 1.9-11.9 4.3-18.8 4.3-6.1 0-6.3-.1-6.6-2.8-.3-3.1-3.1-3.8-3.6-.9-.6 3.2.7 6.3 3.1 7.4 2.9 1.4 16.9.1 23.7-2.2 3.9-1.3 5.2-2.3 6.5-5.2 3.3-7-.7-25.2-6.5-29.5-1.5-1.1-5.3-2.2-9-2.6-6.2-.7-6.5-.8-6.8-3.5-.3-2.9-.3-2.9 4.9-2.5 4.2.2 5.4 0 5.7-1.3.2-1.1-.9-1.8-4-2.5-2.4-.5-5.2-.8-6.3-.6zM152.5 100.7c-8.1 8.4-10.1 29.4-3.9 41.8 3.5 7.1 7.1 9.9 12.2 9.8 3-.1 4.4-.9 7.2-4.1 5.1-5.6 7.2-12.6 7.3-23 0-11-2.4-18.9-7.3-24.2-3.2-3.4-4.3-4-7.8-4-3.4 0-4.7.6-7.7 3.7zm12.4 2.7c10.5 11.2 6.8 44.6-5 44.6-6.3 0-11.6-13-10.6-26 .7-9.4 2.2-14 5.8-17.9 3.4-3.7 6.7-4 9.8-.7zM214.6 98.9c-.8 1.2 12.5 53.3 14 55 .6.7 1.6 1.1 2.1.8.5-.3 5.1-11.9 10.3-25.7 6.7-18 9-25.4 8.3-26.1-.6-.6-1.5-.9-2-.6-.5.3-4.5 10.1-8.8 21.7-4.3 11.6-8.2 20.7-8.5 20.3-.4-.4-1.9-5.8-3.4-11.8-6.2-25.5-8.9-34.5-10.2-34.5-.7 0-1.5.4-1.8.9zM262.4 104.5c-.3.6-.3 11.4-.2 24l.3 22.9 2.7.7c1.4.4 6.3 1 10.8 1.4 7.7.7 8.2.6 7.8-1.1-.2-1.5-1.6-2.1-6.8-2.7-11.9-1.5-11-.7-11-9.3v-7.6l4.8.8c7.7 1.3 11.7 1.1 11.7-.6 0-1-2.3-1.9-8-3l-8-1.6-.3-10-.3-10.1 6.8-.9c5.2-.7 6.9-1.3 7.1-2.6.3-1.6-.6-1.7-8.4-1.5-4.7.1-8.8.7-9 1.2zM184.4 134.2c.4 15 1.1 27.6 1.5 28.1.4.4 3.9.1 7.7-.8 3.8-.8 7.9-1.8 9.2-2 2.2-.5 3-2.9 1.3-3.9-.5-.4-3.8.1-7.3.9s-6.6 1.5-7 1.5c-.5 0-.8-4-.8-8.8 0-4.9-.3-16.4-.7-25.5-.6-15.8-.7-16.7-2.6-16.7-2 0-2 .5-1.3 27.2zM144.5 209.6c-33.2 3.8-59.6 11.6-75.2 22.2-9.2 6.2-13.5 12.5-13.5 19.7 0 20 36.5 36.8 92.2 42.6 16.2 1.7 54.6 1.4 71-.5 33.8-3.8 58.5-11.1 74.8-22 31.2-20.7 7.1-47.8-52.2-58.6-28-5-69.6-6.5-97.1-3.4zm70.2 3.9c37.5 3.8 67.3 12.9 80.7 24.7 5.8 5 7.6 8.4 7.6 14.1 0 6.1-4 11.3-13.2 17-22.8 14.2-60.5 21.8-107.8 21.8-46.8 0-83.3-7.1-107.1-20.9-6.5-3.7-13.5-10.9-14.5-14.7-4.7-18.7 30.8-35.9 86.6-41.9 17.2-1.9 49.5-1.9 67.7-.1zM151 23v7h11v11.2c0 6.2.4 11.9.9 12.6 1 1.7 4.6 1.2 4.5-.6-.1-.6-.2-9.1-.2-18.7L167 17h-2.5c-2.2 0-2.5.4-2.5 3.5 0 3.2-.2 3.5-3 3.5s-3-.2-3-4c0-3.6-.2-4-2.5-4-2.4 0-2.5.2-2.5 7zM190.7 18.1c-.9.5-2.7 2.9-4 5.2-1.9 3.6-2.2 5.7-2.2 14.7 0 9.4.3 11 2.5 15 1.5 2.7 3.6 4.8 5.3 5.4 4.2 1.5 7.8-.3 10.7-5.4 2.2-4 2.5-5.6 2.5-15 0-9-.3-11.1-2.3-14.7-3.1-6-7.8-7.9-12.5-5.2zm8.5 7.9c2.5 4.9 2.5 19.1 0 24-1.3 2.6-2.3 3.5-4.2 3.5-1.8 0-3-.9-4.3-3.5-2.5-4.8-2.1-21.3.6-25.4 2.5-3.7 5.7-3.2 7.9 1.4z"/></svg>